<svg width="27" height="30" viewBox="0 0 27 30" fill="none" xmlns="http://www.w3.org/2000/svg">
<path d="M19.6298 10.8019C21.562 12.1825 23.9291 12.9947 26.4857 12.9947V8.07785C26.0018 8.07803 25.5192 8.02755 25.0459 7.92723V11.7975C22.4896 11.7975 20.1228 10.9854 18.1901 9.60495V19.639C18.1901 24.6586 14.1188 28.7275 9.09703 28.7275C7.22328 28.7275 5.48162 28.1613 4.0349 27.1902C5.68614 28.8778 7.9889 29.9246 10.5364 29.9246C15.5586 29.9246 19.63 25.8557 19.63 20.8359V10.8019H19.6298ZM21.406 5.8414C20.4185 4.76316 19.7701 3.36971 19.6298 1.82916V1.19678H18.2655C18.6089 3.15474 19.7804 4.8275 21.406 5.8414ZM7.21117 23.3384C6.65942 22.6155 6.36119 21.731 6.36259 20.8215C6.36259 18.5258 8.22476 16.6644 10.5222 16.6644C10.9503 16.6641 11.3759 16.7298 11.784 16.8592V11.8323C11.3071 11.767 10.8259 11.7392 10.3448 11.7494V15.6621C9.93653 15.5327 9.51074 15.467 9.08245 15.4674C6.78507 15.4674 4.923 17.3286 4.923 19.6246C4.923 21.2482 5.85372 22.6537 7.21117 23.3384Z" fill="#FF004F"/>
<path d="M18.1901 9.60485C20.1229 10.9853 22.4894 11.7974 25.0459 11.7974V7.92712C23.6189 7.62329 22.3557 6.87805 21.4059 5.8414C19.7802 4.8274 18.6089 3.15464 18.2655 1.19678H14.6817V20.8357C14.6735 23.1252 12.8146 24.979 10.522 24.979C9.17121 24.979 7.971 24.3355 7.21097 23.3383C5.85373 22.6537 4.9229 21.2481 4.9229 19.6247C4.9229 17.3289 6.78497 15.4675 9.08235 15.4675C9.52252 15.4675 9.94676 15.5359 10.3447 15.6622V11.7495C5.41107 11.8514 1.44331 15.8805 1.44331 20.8358C1.44331 23.3095 2.43135 25.5519 4.035 27.1904C5.48173 28.1613 7.22328 28.7277 9.09714 28.7277C14.119 28.7277 18.1902 24.6585 18.1902 19.639L18.1901 9.60485Z" fill="black"/>
<path d="M25.0459 7.92724V6.88097C23.7591 6.88283 22.4977 6.52266 21.4059 5.84162C22.3724 6.89908 23.6449 7.62831 25.0459 7.92745M18.2653 1.1969C18.2326 1.00982 18.2075 0.821491 18.19 0.632379V0H13.2417V19.6391C13.2338 21.9284 11.3749 23.7822 9.08225 23.7822C8.43231 23.7832 7.79125 23.6313 7.21087 23.3388C7.9709 24.3357 9.17111 24.9791 10.5219 24.9791C12.8143 24.9791 14.6735 23.1256 14.6816 20.836V1.197L18.2653 1.1969ZM10.3449 11.7497V10.6356C9.93144 10.5792 9.51458 10.5509 9.09724 10.551C4.07483 10.551 0.00362396 14.62 0.00362396 19.6391C0.00362396 22.7859 1.60366 25.5592 4.03511 27.1904C2.43145 25.552 1.44342 23.3095 1.44342 20.8359C1.44342 15.8808 5.41107 11.8516 10.3449 11.7497Z" fill="#00F2EA"/>
</svg>
