<svg width="46" height="33" viewBox="0 0 46 33" fill="none" xmlns="http://www.w3.org/2000/svg">
<path d="M22.8499 32.1829C21.4921 31.2375 20.2913 30.0845 19.2915 28.7662C16.6665 25.3579 15.3395 21.1746 15.3395 16.3183C15.3395 7.09957 20.2332 2.41207 22.3374 0.826656C22.482 0.717483 22.6583 0.658422 22.8395 0.658422C23.0207 0.658422 23.1969 0.717483 23.3415 0.826656C25.4457 2.41207 30.3395 7.09957 30.3395 16.3183C30.3395 21.1746 29.0124 25.3579 26.3978 28.7517C25.398 30.0699 24.1972 31.2229 22.8395 32.1683L22.8499 32.1829Z" fill="#FFBE99"/>
<path d="M45.3186 18.7475C44.7103 21.0037 42.8186 25.3058 37.0061 28.7787C33.9991 30.6035 30.6308 31.7516 27.1353 32.1433C30.3874 30.1767 34.427 26.7267 37.1915 21.9121C37.9977 20.5199 38.6715 19.0551 39.2041 17.5371C41.0544 17.2163 42.9515 17.2873 44.7728 17.7454C44.8698 17.7716 44.9605 17.817 45.0396 17.8789C45.1187 17.9408 45.1845 18.018 45.2332 18.1058C45.3395 18.2969 45.3665 18.5221 45.3082 18.7329L45.3186 18.7475Z" fill="#FFE8DB"/>
<path d="M36.9645 5.67666C37.1782 5.63238 37.4008 5.66959 37.5885 5.78099C37.7762 5.89238 37.9155 6.06992 37.979 6.27874C38.8124 8.88291 39.6457 14.2683 35.7353 21.0704C33.5582 24.86 30.504 27.7787 27.7957 29.7037C29.9228 26.9037 32.0061 22.5787 32.0061 16.3183C32.028 13.6987 31.614 11.0937 30.7811 8.60999C32.6012 7.18906 34.7126 6.18745 36.9645 5.67666Z" fill="#FF9B99"/>
<path d="M7.69988 6.27874C7.76509 6.07158 7.90517 5.89616 8.09278 5.78675C8.2804 5.67735 8.50205 5.64181 8.71447 5.68707C10.9655 6.19475 13.0767 7.19278 14.8978 8.60999C14.0649 11.0937 13.6509 13.6987 13.6728 16.3183C13.6728 22.5787 15.7561 26.9058 17.8832 29.6996C15.1749 27.7746 12.1207 24.8558 9.94363 21.0662C6.03113 14.2579 6.85821 8.87249 7.69988 6.27874Z" fill="#FFD199"/>
<path d="M8.68321 28.7787C2.87071 25.3058 0.97488 21.0037 0.370714 18.7475C0.339972 18.6387 0.331691 18.5248 0.346375 18.4127C0.36106 18.3006 0.398402 18.1926 0.45613 18.0954C0.50483 18.0076 0.570679 17.9304 0.649769 17.8685C0.728859 17.8066 0.81958 17.7612 0.916547 17.735C2.73793 17.2778 4.63484 17.2068 6.4853 17.5267C7.01788 19.0447 7.69166 20.5094 8.4978 21.9017C11.2645 26.7142 15.302 30.1662 18.554 32.1329C15.0582 31.7399 11.6899 30.5903 8.68321 28.7642V28.7787Z" fill="#FFDF99"/>
</svg>
