<svg width="186" height="50" viewBox="0 0 186 50" fill="none" xmlns="http://www.w3.org/2000/svg">
<path d="M1.925 35V33.845C2.81167 33.8217 3.41833 33.6233 3.745 33.25C4.07167 32.8533 4.24667 32.3283 4.27 31.675C4.31667 30.9983 4.34 30.2283 4.34 29.365V14.665C4.34 14.035 4.35167 13.4983 4.375 13.055C4.39833 12.5883 4.42167 12.2033 4.445 11.9C4.025 11.9233 3.605 11.9467 3.185 11.97C2.765 11.9933 2.345 12.0167 1.925 12.04V10.5C3.20833 10.4767 4.49167 10.465 5.775 10.465C7.08167 10.4417 8.435 10.43 9.835 10.43C12.5417 10.43 14.6533 10.9083 16.17 11.865C17.71 12.8217 18.4567 14.3383 18.41 16.415C18.41 17.1617 18.1883 17.9083 17.745 18.655C17.325 19.4017 16.6833 20.0667 15.82 20.65C14.98 21.21 13.9183 21.6067 12.635 21.84V21.91C15.2017 21.91 17.1383 22.505 18.445 23.695C19.7517 24.8617 20.405 26.3433 20.405 28.14C20.405 29.5633 20.0433 30.7883 19.32 31.815C18.5967 32.8417 17.6167 33.635 16.38 34.195C15.1433 34.7317 13.7317 35 12.145 35H1.925ZM7.28 33.6C7.65333 33.6233 8.09667 33.6467 8.61 33.67C9.14667 33.67 9.63667 33.67 10.08 33.67C10.5467 33.67 10.85 33.67 10.99 33.67C12.7867 33.67 14.2333 33.2267 15.33 32.34C16.45 31.43 17.01 30.1 17.01 28.35C17.01 26.9267 16.73 25.8183 16.17 25.025C15.61 24.2317 14.875 23.6717 13.965 23.345C13.055 23.0183 12.0633 22.855 10.99 22.855C10.29 22.855 9.64833 22.8667 9.065 22.89C8.505 22.89 7.945 22.9133 7.385 22.96V30.87C7.385 31.5 7.37333 32.0367 7.35 32.48C7.35 32.9233 7.32667 33.2967 7.28 33.6ZM7.385 21.595L9.94 21.525C11.27 21.5017 12.32 21.2333 13.09 20.72C13.86 20.1833 14.4083 19.5183 14.735 18.725C15.085 17.9317 15.2483 17.1033 15.225 16.24C15.2017 14.98 14.91 14.0233 14.35 13.37C13.8133 12.7167 13.1483 12.2733 12.355 12.04C11.5617 11.8067 10.78 11.69 10.01 11.69C9.24 11.69 8.66833 11.795 8.295 12.005C7.92167 12.215 7.67667 12.565 7.56 13.055C7.44333 13.545 7.385 14.2217 7.385 15.085V21.595ZM31.7825 35.56C30.1725 35.56 28.7141 35.1867 27.4075 34.44C26.1241 33.67 25.1091 32.5967 24.3625 31.22C23.6158 29.82 23.2425 28.175 23.2425 26.285C23.2425 24.6517 23.6041 23.1233 24.3275 21.7C25.0741 20.2767 26.1125 19.1333 27.4425 18.27C28.7725 17.3833 30.3125 16.94 32.0625 16.94C33.0425 16.94 33.9525 17.1033 34.7925 17.43C35.6558 17.7333 36.4141 18.2117 37.0675 18.865C37.7208 19.495 38.2341 20.3 38.6075 21.28C38.9808 22.2367 39.1675 23.3683 39.1675 24.675L26.8475 24.885C26.8475 26.6583 27.0341 28.2217 27.4075 29.575C27.8041 30.905 28.4341 31.9433 29.2975 32.69C30.1608 33.4133 31.2691 33.775 32.6225 33.775C33.3458 33.775 34.0808 33.6467 34.8275 33.39C35.5975 33.1333 36.3091 32.7833 36.9625 32.34C37.6158 31.8967 38.1408 31.4067 38.5375 30.87L39.3775 31.57C38.7475 32.55 37.9891 33.3317 37.1025 33.915C36.2158 34.4983 35.3058 34.9183 34.3725 35.175C33.4391 35.4317 32.5758 35.56 31.7825 35.56ZM26.9525 23.415H35.8775C35.8775 22.575 35.7491 21.77 35.4925 21C35.2591 20.2067 34.8625 19.565 34.3025 19.075C33.7425 18.5617 33.0075 18.305 32.0975 18.305C30.7441 18.305 29.6125 18.7133 28.7025 19.53C27.8158 20.3233 27.2325 21.6183 26.9525 23.415ZM52.8538 35C52.7838 34.6033 52.7372 34.2533 52.7138 33.95C52.6905 33.6467 52.6555 33.3317 52.6088 33.005C51.8155 33.7983 50.9522 34.4283 50.0188 34.895C49.1088 35.3383 48.1405 35.56 47.1138 35.56C45.3405 35.56 44.0222 35.1633 43.1588 34.37C42.2955 33.5533 41.8638 32.5617 41.8638 31.395C41.8638 30.3217 42.1905 29.4 42.8438 28.63C43.5205 27.8367 44.3838 27.195 45.4338 26.705C46.5072 26.1917 47.6622 25.8183 48.8988 25.585C50.1588 25.3283 51.3722 25.2117 52.5388 25.235V23.065C52.5388 22.2483 52.4688 21.4783 52.3288 20.755C52.1888 20.0317 51.8855 19.4367 51.4188 18.97C50.9522 18.5033 50.2055 18.2583 49.1788 18.235C48.5022 18.2117 47.8022 18.34 47.0788 18.62C46.3788 18.9 45.8655 19.3783 45.5388 20.055C45.7255 20.2417 45.8422 20.4633 45.8888 20.72C45.9588 20.9533 45.9938 21.175 45.9938 21.385C45.9938 21.665 45.8772 21.9917 45.6438 22.365C45.4105 22.715 45.0022 22.8783 44.4188 22.855C43.9288 22.855 43.5555 22.6917 43.2988 22.365C43.0422 22.015 42.9138 21.6067 42.9138 21.14C42.9138 20.3467 43.2055 19.635 43.7888 19.005C44.3955 18.375 45.2238 17.8733 46.2738 17.5C47.3238 17.1267 48.5138 16.94 49.8438 16.94C51.8038 16.94 53.2505 17.465 54.1838 18.515C55.1172 19.5417 55.5722 21.175 55.5488 23.415C55.5488 24.2783 55.5488 25.1533 55.5488 26.04C55.5488 26.9033 55.5372 27.7783 55.5138 28.665C55.5138 29.5283 55.5138 30.4033 55.5138 31.29C55.5138 31.6633 55.5022 32.0367 55.4788 32.41C55.4555 32.7833 55.4205 33.2033 55.3738 33.67C55.7938 33.6467 56.2022 33.6233 56.5988 33.6C57.0188 33.5767 57.4388 33.5533 57.8588 33.53V35H52.8538ZM52.5388 26.425C51.7455 26.4483 50.9055 26.5533 50.0188 26.74C49.1555 26.9033 48.3505 27.16 47.6038 27.51C46.8805 27.86 46.2855 28.3267 45.8188 28.91C45.3755 29.47 45.1655 30.1583 45.1888 30.975C45.2355 31.8383 45.5155 32.4917 46.0288 32.935C46.5655 33.355 47.1955 33.565 47.9188 33.565C48.8755 33.565 49.7038 33.39 50.4038 33.04C51.1272 32.6667 51.8388 32.1533 52.5388 31.5C52.5155 31.2433 52.5038 30.9633 52.5038 30.66C52.5038 30.3567 52.5038 30.0417 52.5038 29.715C52.5038 29.5983 52.5038 29.225 52.5038 28.595C52.5272 27.965 52.5388 27.2417 52.5388 26.425ZM67.4406 35.56C66.1806 35.56 65.119 35.3267 64.2556 34.86C63.4156 34.3933 62.774 33.6 62.3306 32.48C61.9106 31.36 61.7006 29.8433 61.7006 27.93V21.7C61.7006 21.3267 61.7006 20.9533 61.7006 20.58C61.724 20.2067 61.7706 19.8217 61.8406 19.425C61.444 19.4483 61.0356 19.4717 60.6156 19.495C60.219 19.495 59.8223 19.5067 59.4256 19.53V18.095H60.5106C61.514 18.095 62.2373 18.0017 62.6806 17.815C63.1473 17.605 63.509 17.3833 63.7656 17.15H64.7806V27.825C64.7806 29.8317 65.0606 31.3367 65.6206 32.34C66.204 33.32 67.184 33.7983 68.5606 33.775C69.4473 33.7517 70.2873 33.4833 71.0806 32.97C71.8973 32.4333 72.5506 31.8033 73.0406 31.08V22.085C73.0406 21.525 73.0523 21.0467 73.0756 20.65C73.099 20.23 73.1456 19.8217 73.2156 19.425C72.7956 19.4483 72.3756 19.4717 71.9556 19.495C71.5356 19.495 71.1156 19.5067 70.6956 19.53V18.095H71.7806C72.784 18.095 73.5073 18.0017 73.9506 17.815C74.4173 17.605 74.779 17.3833 75.0356 17.15H76.0506L76.0156 30.38C76.0156 30.7533 76.004 31.2783 75.9806 31.955C75.9573 32.6317 75.9223 33.2033 75.8756 33.67C76.2956 33.6467 76.7156 33.6233 77.1356 33.6C77.5556 33.5767 77.9756 33.5533 78.3956 33.53V35H73.3906C73.3206 34.6033 73.2623 34.23 73.2156 33.88C73.1923 33.53 73.169 33.2033 73.1456 32.9C72.4223 33.6233 71.5473 34.2533 70.5206 34.79C69.494 35.3033 68.4673 35.56 67.4406 35.56ZM87.5194 35.56C86.9827 35.56 86.4344 35.4783 85.8744 35.315C85.3144 35.175 84.7894 34.8833 84.2994 34.44C83.8327 33.9967 83.4594 33.355 83.1794 32.515C82.8994 31.6517 82.7594 30.52 82.7594 29.12L82.8294 18.97L80.1344 19.005V17.5C80.7411 17.4767 81.3594 17.255 81.9894 16.835C82.6194 16.3917 83.1794 15.7967 83.6694 15.05C84.1827 14.3033 84.5327 13.4867 84.7194 12.6H85.9094V17.5H91.7894V18.865L85.9094 18.935L85.8394 28.665C85.8394 29.715 85.9211 30.6133 86.0844 31.36C86.2711 32.0833 86.5627 32.6317 86.9594 33.005C87.3561 33.3783 87.8694 33.565 88.4994 33.565C89.1527 33.565 89.7594 33.3783 90.3194 33.005C90.9027 32.6317 91.4161 32.1183 91.8594 31.465L92.8044 32.235C92.2911 33.005 91.7777 33.6117 91.2644 34.055C90.7744 34.4983 90.2961 34.825 89.8294 35.035C89.3627 35.2683 88.9311 35.4083 88.5344 35.455C88.1377 35.525 87.7994 35.56 87.5194 35.56ZM94.4746 33.95C95.1979 33.95 95.6996 33.775 95.9796 33.425C96.2596 33.0517 96.4229 32.55 96.4696 31.92C96.5162 31.2667 96.5396 30.52 96.5396 29.68V21.7C96.5396 21.3267 96.5512 20.9767 96.5746 20.65C96.5979 20.3 96.6329 19.8917 96.6796 19.425C96.2596 19.4483 95.8396 19.4717 95.4196 19.495C95.0229 19.5183 94.6146 19.5417 94.1946 19.565V18.095C95.2212 18.095 96.0146 18.0483 96.5746 17.955C97.1346 17.8617 97.5546 17.745 97.8346 17.605C98.1379 17.465 98.3712 17.3133 98.5346 17.15H99.5496V31.29C99.5496 31.7567 99.5379 32.1767 99.5146 32.55C99.5146 32.9 99.4796 33.2733 99.4096 33.67C99.7829 33.6467 100.145 33.635 100.495 33.635C100.868 33.6117 101.241 33.5883 101.615 33.565V35H94.4746V33.95ZM97.8346 13.685C97.3446 13.685 96.9129 13.4867 96.5396 13.09C96.1662 12.6933 95.9796 12.2033 95.9796 11.62C95.9796 11.0367 96.1662 10.5467 96.5396 10.15C96.9362 9.73 97.3796 9.52 97.8696 9.52C98.4062 9.52 98.8496 9.73 99.1996 10.15C99.5729 10.5467 99.7596 11.0367 99.7596 11.62C99.7596 12.2033 99.5612 12.6933 99.1646 13.09C98.7912 13.4867 98.3479 13.685 97.8346 13.685ZM106.523 16.765C106.523 14.175 106.99 12.1333 107.923 10.64C108.88 9.14667 110.513 8.4 112.823 8.4C113.337 8.4 113.873 8.49333 114.433 8.68C115.017 8.84333 115.518 9.12333 115.938 9.52C116.358 9.89333 116.568 10.3833 116.568 10.99C116.568 11.4333 116.44 11.8067 116.183 12.11C115.95 12.4133 115.6 12.565 115.133 12.565C114.573 12.5883 114.177 12.425 113.943 12.075C113.733 11.7017 113.628 11.3867 113.628 11.13C113.628 10.99 113.64 10.85 113.663 10.71C113.687 10.57 113.733 10.4183 113.803 10.255C113.64 10.045 113.407 9.89333 113.103 9.8C112.823 9.70667 112.555 9.66 112.298 9.66C111.575 9.66 111.015 9.87 110.618 10.29C110.222 10.71 109.942 11.235 109.778 11.865C109.615 12.495 109.533 13.1483 109.533 13.825V17.5H114.258V18.865L109.533 18.97L109.568 31.29C109.568 31.7567 109.557 32.1767 109.533 32.55C109.533 32.9 109.498 33.2733 109.428 33.67C109.802 33.6467 110.163 33.635 110.513 33.635C110.887 33.6117 111.26 33.5883 111.633 33.565V35H104.493V33.95C105.217 33.95 105.718 33.775 105.998 33.425C106.278 33.0517 106.442 32.55 106.488 31.92C106.535 31.2667 106.558 30.52 106.558 29.68L106.523 19.005L103.653 19.075V17.5H106.523V16.765ZM119.25 44.485C118.526 44.485 117.908 44.31 117.395 43.96C116.881 43.61 116.625 43.0733 116.625 42.35C116.625 41.93 116.765 41.545 117.045 41.195C117.325 40.845 117.686 40.67 118.13 40.67C118.69 40.6467 119.063 40.8217 119.25 41.195C119.46 41.5683 119.565 41.895 119.565 42.175C119.565 42.245 119.565 42.315 119.565 42.385C119.565 42.4783 119.553 42.5717 119.53 42.665C119.6 42.7117 119.728 42.735 119.915 42.735C120.195 42.735 120.498 42.6183 120.825 42.385C121.151 42.1517 121.443 41.8133 121.7 41.37C122.003 40.8567 122.353 40.0867 122.75 39.06C123.17 38.0333 123.636 36.8083 124.15 35.385L118.69 23.695C118.083 22.3883 117.64 21.35 117.36 20.58C117.103 19.81 116.928 19.2383 116.835 18.865L115.155 18.935V17.5H122.4V18.55H122.26C121.28 18.62 120.743 18.9933 120.65 19.67C120.556 20.3233 120.825 21.3267 121.455 22.68L125.55 31.465C126.086 29.9717 126.6 28.5017 127.09 27.055C127.58 25.585 128.07 24.1267 128.56 22.68C128.746 22.1667 128.933 21.6417 129.12 21.105C129.33 20.545 129.528 20.055 129.715 19.635C129.925 19.1917 130.111 18.9117 130.275 18.795L127.86 18.935V17.5H133.355V18.55C132.491 18.8767 131.838 19.425 131.395 20.195C130.975 20.9417 130.543 21.91 130.1 23.1L125.725 35.315C125.025 37.275 124.383 38.9317 123.8 40.285C123.216 41.6617 122.575 42.7 121.875 43.4C121.175 44.1233 120.3 44.485 119.25 44.485Z" fill="url(#paint0_linear_358_4)"/>
<path d="M160.85 41.1829C159.492 40.2375 158.291 39.0845 157.292 37.7662C154.667 34.3579 153.339 30.1746 153.339 25.3183C153.339 16.0996 158.233 11.4121 160.337 9.82666C160.482 9.71748 160.658 9.65842 160.839 9.65842C161.021 9.65842 161.197 9.71748 161.342 9.82666C163.446 11.4121 168.339 16.0996 168.339 25.3183C168.339 30.1746 167.012 34.3579 164.398 37.7517C163.398 39.0699 162.197 40.2229 160.839 41.1683L160.85 41.1829Z" fill="#FFBE99"/>
<path d="M183.319 27.7475C182.71 30.0037 180.819 34.3058 175.006 37.7787C171.999 39.6035 168.631 40.7516 165.135 41.1433C168.387 39.1767 172.427 35.7267 175.192 30.9121C175.998 29.5199 176.671 28.0551 177.204 26.5371C179.054 26.2163 180.952 26.2873 182.773 26.7454C182.87 26.7716 182.96 26.817 183.04 26.8789C183.119 26.9408 183.185 27.018 183.233 27.1058C183.34 27.2969 183.366 27.5221 183.308 27.7329L183.319 27.7475Z" fill="#FFE8DB"/>
<path d="M174.964 14.6767C175.178 14.6324 175.401 14.6696 175.588 14.781C175.776 14.8924 175.916 15.0699 175.979 15.2787C176.812 17.8829 177.646 23.2683 173.735 30.0704C171.558 33.86 168.504 36.7787 165.796 38.7037C167.923 35.9037 170.006 31.5787 170.006 25.3183C170.028 22.6987 169.614 20.0937 168.781 17.61C170.601 16.1891 172.713 15.1874 174.964 14.6767Z" fill="#FF9B99"/>
<path d="M145.7 15.2787C145.765 15.0716 145.905 14.8962 146.093 14.7868C146.28 14.6773 146.502 14.6418 146.714 14.6871C148.965 15.1948 151.077 16.1928 152.898 17.61C152.065 20.0937 151.651 22.6987 151.673 25.3183C151.673 31.5787 153.756 35.9058 155.883 38.6996C153.175 36.7746 150.121 33.8558 147.944 30.0662C144.031 23.2579 144.858 17.8725 145.7 15.2787Z" fill="#FFD199"/>
<path d="M146.683 37.7787C140.871 34.3058 138.975 30.0037 138.371 27.7475C138.34 27.6387 138.332 27.5248 138.346 27.4127C138.361 27.3006 138.398 27.1926 138.456 27.0954C138.505 27.0076 138.571 26.9304 138.65 26.8685C138.729 26.8066 138.82 26.7612 138.917 26.735C140.738 26.2778 142.635 26.2068 144.485 26.5267C145.018 28.0447 145.692 29.5094 146.498 30.9017C149.264 35.7142 153.302 39.1662 156.554 41.1329C153.058 40.7399 149.69 39.5903 146.683 37.7642V37.7787Z" fill="#FFDF99"/>
<defs>
<linearGradient id="paint0_linear_358_4" x1="-5.64922e-08" y1="22" x2="107.718" y2="31.9328" gradientUnits="userSpaceOnUse">
<stop stop-color="#FFD199"/>
<stop offset="1" stop-color="#FF9B99"/>
</linearGradient>
</defs>
</svg>
